<?xml version="1.0" standalone="no"?><!-- Generator: Gravit.io --><svg xmlns="http://www.w3.org/2000/svg" xmlns:xlink="http://www.w3.org/1999/xlink" style="isolation:isolate" viewBox="0 0 1366 768" width="1366" height="768"><defs><clipPath id="_clipPath_iLv3TH3X6mwx6kIR5xnCoeHBirBwdPPI"><rect width="1366" height="768"/></clipPath></defs><g clip-path="url(#_clipPath_iLv3TH3X6mwx6kIR5xnCoeHBirBwdPPI)"><g id="Group"><path d=" M 80.235 767.839 C 80.235 697.744 121.877 639.615 131.814 627.516 C 126.932 638.966 114.621 660.549 114.621 767.971 L 80.235 767.839 Z " fill="rgb(56,142,60)"/><path d=" M 103.159 767.81 C 103.159 711.213 166 646.324 183.394 635.774 C 173.743 645.453 137.545 686.521 137.545 768 L 103.159 767.81 Z " fill="rgb(56,142,60)"/><path d=" M 74.504 767.905 C 74.504 697.711 42.221 661.082 34.386 652.291 C 44.507 659.822 108.89 718.422 108.89 767.905 L 74.504 767.905 Z " fill="rgb(56,142,60)"/><path d=" M 131.814 767.905 C 131.814 711.597 196.111 666.165 206.318 660.549 C 198.123 667.647 166.201 705.969 166.201 767.905 L 131.814 767.905 Z  M 45.848 767.905 C 45.848 705.824 8.843 667.453 0 660.549 C 10.769 665.917 80.235 713.178 80.235 767.905 L 45.848 767.905 Z " fill="rgb(139,195,74)"/><path d=" M 76.968 685.274 C 79.089 691.228 80.796 697.228 82.206 703.26 C 96.757 723.245 108.867 746.405 108.89 767.872 L 120.352 767.81 C 118.938 752.973 116.034 738.23 111.664 723.695 C 107.211 709.177 101.165 694.936 93.244 681.306 C 85.364 667.68 75.621 654.661 63.982 642.695 C 52.296 630.791 38.954 619.63 22.924 611 C 37.005 621.158 47.705 633.338 56.617 645.87 C 65.46 658.484 72.131 671.759 76.962 685.274 L 76.968 685.274 Z  M 85.966 767.905 L 85.966 768 L 103.159 767.905 L 85.966 767.905 Z " fill="rgb(76,175,80)"/></g><g id="Group"><path d=" M 131.083 767.867 C 131.083 709.826 163.423 661.694 171.14 651.676 C 167.348 661.157 157.788 679.028 157.788 767.976 L 131.083 767.867 Z " fill="rgb(56,142,60)"/><path d=" M 148.886 767.843 C 148.886 720.979 197.689 667.249 211.197 658.514 C 203.702 666.528 175.591 700.533 175.591 768 L 148.886 767.843 Z " fill="rgb(56,142,60)"/><path d=" M 126.633 767.921 C 126.633 709.799 101.561 679.469 95.477 672.19 C 103.337 678.426 153.337 726.948 153.337 767.921 L 126.633 767.921 Z " fill="rgb(56,142,60)"/><path d=" M 171.14 767.921 C 171.14 721.297 221.073 683.678 229 679.028 C 222.635 684.905 197.845 716.637 197.845 767.921 L 171.14 767.921 Z  M 104.379 767.921 C 104.379 716.517 75.64 684.744 68.773 679.028 C 77.136 683.472 131.083 722.606 131.083 767.921 L 104.379 767.921 Z " fill="rgb(139,195,74)"/><path d=" M 128.546 699.501 C 130.193 704.431 131.52 709.399 132.614 714.394 C 143.915 730.942 153.319 750.119 153.337 767.894 L 162.239 767.843 C 161.14 755.557 158.885 743.349 155.491 731.314 C 152.033 719.293 147.338 707.501 141.187 696.215 C 135.067 684.932 127.5 674.152 118.461 664.244 C 109.386 654.387 99.025 645.146 86.576 638 C 97.511 646.411 105.821 656.497 112.742 666.873 C 119.609 677.318 124.79 688.31 128.542 699.501 L 128.546 699.501 Z  M 135.534 767.921 L 135.534 768 L 148.886 767.921 L 135.534 767.921 Z " fill="rgb(76,175,80)"/></g><g id="Group"><path d=" M 232.444 767.822 C 232.444 690.136 275.233 625.713 285.444 612.305 C 280.427 624.994 267.778 648.914 267.778 767.968 L 232.444 767.822 Z " fill="rgb(56,142,60)"/><path d=" M 256 767.79 C 256 705.064 320.572 633.149 338.444 621.457 C 328.528 632.184 291.333 677.698 291.333 768 L 256 767.79 Z " fill="rgb(56,142,60)"/><path d=" M 226.556 767.895 C 226.556 690.1 193.383 649.504 185.333 639.762 C 195.733 648.109 261.889 713.054 261.889 767.895 L 226.556 767.895 Z " fill="rgb(56,142,60)"/><path d=" M 285.444 767.895 C 285.444 705.489 351.512 655.138 362 648.914 C 353.579 656.781 320.778 699.252 320.778 767.895 L 285.444 767.895 Z  M 197.111 767.895 C 197.111 699.092 159.087 656.566 150 648.914 C 161.065 654.863 232.444 707.242 232.444 767.895 L 197.111 767.895 Z " fill="rgb(139,195,74)"/><path d=" M 229.088 676.316 C 231.267 682.915 233.022 689.564 234.47 696.25 C 249.422 718.399 261.865 744.067 261.889 767.858 L 273.667 767.79 C 272.214 751.346 269.23 735.006 264.739 718.898 C 260.163 702.808 253.951 687.025 245.812 671.919 C 237.715 656.817 227.704 642.389 215.744 629.127 C 203.736 615.934 190.027 603.564 173.556 594 C 188.025 605.257 199.019 618.757 208.176 632.646 C 217.263 646.626 224.118 661.338 229.082 676.316 L 229.088 676.316 Z  M 238.333 767.895 L 238.333 768 L 256 767.895 L 238.333 767.895 Z " fill="rgb(76,175,80)"/></g><g id="Group"><path d=" M 32.101 767.839 C 32.101 697.744 66.926 639.615 75.237 627.516 C 71.154 638.966 60.859 660.549 60.859 767.971 L 32.101 767.839 Z " fill="rgb(56,142,60)"/><path d=" M 51.273 767.81 C 51.273 711.213 103.827 646.324 118.374 635.774 C 110.302 645.453 80.03 686.521 80.03 768 L 51.273 767.81 Z " fill="rgb(56,142,60)"/><path d=" M 27.308 767.905 C 27.308 697.711 0.31 661.082 -6.242 652.291 C 2.222 659.822 56.066 718.422 56.066 767.905 L 27.308 767.905 Z " fill="rgb(56,142,60)"/><path d=" M 75.237 767.905 C 75.237 711.597 129.009 666.165 137.545 660.549 C 130.692 667.647 103.995 705.969 103.995 767.905 L 75.237 767.905 Z  M 3.343 767.905 C 3.343 705.824 -27.605 667.453 -35 660.549 C -25.994 665.917 32.101 713.178 32.101 767.905 L 3.343 767.905 Z " fill="rgb(139,195,74)"/><path d=" M 29.369 685.274 C 31.142 691.228 32.571 697.228 33.75 703.26 C 45.919 723.245 56.046 746.405 56.066 767.872 L 65.652 767.81 C 64.469 752.973 62.04 738.23 58.385 723.695 C 54.661 709.177 49.605 694.936 42.981 681.306 C 36.391 667.68 28.243 654.661 18.508 642.695 C 8.735 630.791 -2.422 619.63 -15.828 611 C -4.052 621.158 4.896 633.338 12.349 645.87 C 19.745 658.484 25.324 671.759 29.364 685.274 L 29.369 685.274 Z  M 36.894 767.905 L 36.894 768 L 51.273 767.905 L 36.894 767.905 Z " fill="rgb(76,175,80)"/></g><g id="Group"><path d=" M 352.056 767.839 C 352.056 697.744 391.009 639.615 400.306 627.516 C 395.738 638.966 384.222 660.549 384.222 767.971 L 352.056 767.839 Z " fill="rgb(56,142,60)"/><path d=" M 373.5 767.81 C 373.5 711.213 432.285 646.324 448.556 635.774 C 439.527 645.453 405.667 686.521 405.667 768 L 373.5 767.81 Z " fill="rgb(56,142,60)"/><path d=" M 346.694 767.905 C 346.694 697.711 316.495 661.082 309.167 652.291 C 318.634 659.822 378.861 718.422 378.861 767.905 L 346.694 767.905 Z " fill="rgb(56,142,60)"/><path d=" M 400.306 767.905 C 400.306 711.597 460.452 666.165 470 660.549 C 462.334 667.647 432.472 705.969 432.472 767.905 L 400.306 767.905 Z  M 319.889 767.905 C 319.889 705.824 285.272 667.453 277 660.549 C 287.074 665.917 352.056 713.178 352.056 767.905 L 319.889 767.905 Z " fill="rgb(139,195,74)"/><path d=" M 349 685.274 C 350.983 691.228 352.581 697.228 353.9 703.26 C 367.512 723.245 378.84 746.405 378.861 767.872 L 389.583 767.81 C 388.26 752.973 385.544 738.23 381.456 723.695 C 377.29 709.177 371.634 694.936 364.225 681.306 C 356.854 667.68 347.74 654.661 336.851 642.695 C 325.92 630.791 313.439 619.63 298.444 611 C 311.617 621.158 321.626 633.338 329.962 645.87 C 338.235 658.484 344.475 671.759 348.994 685.274 L 349 685.274 Z  M 357.417 767.905 L 357.417 768 L 373.5 767.905 L 357.417 767.905 Z " fill="rgb(76,175,80)"/></g><g id="Group"><path d=" M 53.49 767.888 C 53.49 719.245 81.251 678.906 87.876 670.511 C 84.621 678.456 76.414 693.434 76.414 767.98 L 53.49 767.888 Z " fill="rgb(56,142,60)"/><path d=" M 68.773 767.868 C 68.773 728.592 110.667 683.563 122.263 676.241 C 115.829 682.958 91.697 711.457 91.697 768 L 68.773 767.868 Z " fill="rgb(56,142,60)"/><path d=" M 49.669 767.934 C 49.669 719.222 28.147 693.803 22.924 687.703 C 29.672 692.93 72.593 733.595 72.593 767.934 L 49.669 767.934 Z " fill="rgb(56,142,60)"/><path d=" M 87.876 767.934 C 87.876 728.859 130.741 697.331 137.545 693.434 C 132.082 698.359 110.801 724.953 110.801 767.934 L 87.876 767.934 Z  M 30.566 767.934 C 30.566 724.853 5.895 698.225 0 693.434 C 7.179 697.159 53.49 729.956 53.49 767.934 L 30.566 767.934 Z " fill="rgb(139,195,74)"/><path d=" M 51.312 710.592 C 52.726 714.724 53.864 718.887 54.804 723.073 C 64.505 736.942 72.578 753.014 72.593 767.911 L 80.235 767.868 C 79.292 757.572 77.356 747.341 74.443 737.254 C 71.474 727.18 67.443 717.297 62.163 707.838 C 56.909 698.382 50.414 689.348 42.654 681.044 C 34.864 672.783 25.969 665.038 15.283 659.049 C 24.67 666.098 31.804 674.551 37.745 683.247 C 43.64 692.001 48.087 701.213 51.308 710.592 L 51.312 710.592 Z  M 57.311 767.934 L 57.311 768 L 68.773 767.934 L 57.311 767.934 Z " fill="rgb(76,175,80)"/></g><g id="Group"><path d=" M 441.235 767.839 C 441.235 697.744 482.877 639.615 492.814 627.516 C 487.932 638.966 475.621 660.549 475.621 767.971 L 441.235 767.839 Z " fill="rgb(56,142,60)"/><path d=" M 464.159 767.81 C 464.159 711.213 527 646.324 544.394 635.774 C 534.743 645.453 498.545 686.521 498.545 768 L 464.159 767.81 Z " fill="rgb(56,142,60)"/><path d=" M 435.504 767.905 C 435.504 697.711 403.221 661.082 395.386 652.291 C 405.507 659.822 469.89 718.422 469.89 767.905 L 435.504 767.905 Z " fill="rgb(56,142,60)"/><path d=" M 492.814 767.905 C 492.814 711.597 557.111 666.165 567.318 660.549 C 559.123 667.647 527.201 705.969 527.201 767.905 L 492.814 767.905 Z  M 406.848 767.905 C 406.848 705.824 369.843 667.453 361 660.549 C 371.769 665.917 441.235 713.178 441.235 767.905 L 406.848 767.905 Z " fill="rgb(139,195,74)"/><path d=" M 437.968 685.274 C 440.089 691.228 441.796 697.228 443.206 703.26 C 457.757 723.245 469.867 746.405 469.89 767.872 L 481.352 767.81 C 479.938 752.973 477.034 738.23 472.664 723.695 C 468.211 709.177 462.165 694.936 454.244 681.306 C 446.364 667.68 436.621 654.661 424.982 642.695 C 413.296 630.791 399.954 619.63 383.924 611 C 398.005 621.158 408.705 633.338 417.617 645.87 C 426.46 658.484 433.131 671.759 437.962 685.274 L 437.968 685.274 Z  M 446.966 767.905 L 446.966 768 L 464.159 767.905 L 446.966 767.905 Z " fill="rgb(76,175,80)"/></g><g id="Group"><path d=" M 492.083 767.867 C 492.083 709.826 524.423 661.694 532.14 651.676 C 528.348 661.157 518.788 679.028 518.788 767.976 L 492.083 767.867 Z " fill="rgb(56,142,60)"/><path d=" M 509.886 767.843 C 509.886 720.979 558.689 667.249 572.197 658.514 C 564.702 666.528 536.591 700.533 536.591 768 L 509.886 767.843 Z " fill="rgb(56,142,60)"/><path d=" M 487.633 767.921 C 487.633 709.799 462.561 679.469 456.477 672.19 C 464.337 678.426 514.337 726.948 514.337 767.921 L 487.633 767.921 Z " fill="rgb(56,142,60)"/><path d=" M 532.14 767.921 C 532.14 721.297 582.073 683.678 590 679.028 C 583.635 684.905 558.845 716.637 558.845 767.921 L 532.14 767.921 Z  M 465.379 767.921 C 465.379 716.517 436.64 684.744 429.773 679.028 C 438.136 683.472 492.083 722.606 492.083 767.921 L 465.379 767.921 Z " fill="rgb(139,195,74)"/><path d=" M 489.546 699.501 C 491.193 704.431 492.52 709.399 493.614 714.394 C 504.915 730.942 514.319 750.119 514.337 767.894 L 523.239 767.843 C 522.14 755.557 519.885 743.349 516.491 731.314 C 513.033 719.293 508.338 707.501 502.187 696.215 C 496.067 684.932 488.5 674.152 479.461 664.244 C 470.386 654.387 460.025 645.146 447.576 638 C 458.511 646.411 466.821 656.497 473.742 666.873 C 480.609 677.318 485.79 688.31 489.542 699.501 L 489.546 699.501 Z  M 496.534 767.921 L 496.534 768 L 509.886 767.921 L 496.534 767.921 Z " fill="rgb(76,175,80)"/></g><g id="Group"><path d=" M 593.444 767.822 C 593.444 690.136 636.233 625.713 646.444 612.305 C 641.427 624.994 628.778 648.914 628.778 767.968 L 593.444 767.822 Z " fill="rgb(56,142,60)"/><path d=" M 617 767.79 C 617 705.064 681.572 633.149 699.444 621.457 C 689.528 632.184 652.333 677.698 652.333 768 L 617 767.79 Z " fill="rgb(56,142,60)"/><path d=" M 587.556 767.895 C 587.556 690.1 554.383 649.504 546.333 639.762 C 556.733 648.109 622.889 713.054 622.889 767.895 L 587.556 767.895 Z " fill="rgb(56,142,60)"/><path d=" M 646.444 767.895 C 646.444 705.489 712.512 655.138 723 648.914 C 714.579 656.781 681.778 699.252 681.778 767.895 L 646.444 767.895 Z  M 558.111 767.895 C 558.111 699.092 520.087 656.566 511 648.914 C 522.065 654.863 593.444 707.242 593.444 767.895 L 558.111 767.895 Z " fill="rgb(139,195,74)"/><path d=" M 590.088 676.316 C 592.267 682.915 594.022 689.564 595.47 696.25 C 610.422 718.399 622.865 744.067 622.889 767.858 L 634.667 767.79 C 633.214 751.346 630.23 735.006 625.739 718.898 C 621.163 702.808 614.951 687.025 606.812 671.919 C 598.715 656.817 588.704 642.389 576.744 629.127 C 564.736 615.934 551.027 603.564 534.556 594 C 549.025 605.257 560.019 618.757 569.176 632.646 C 578.263 646.626 585.118 661.338 590.082 676.316 L 590.088 676.316 Z  M 599.333 767.895 L 599.333 768 L 617 767.895 L 599.333 767.895 Z " fill="rgb(76,175,80)"/></g><g id="Group"><path d=" M 393.101 767.839 C 393.101 697.744 427.926 639.615 436.237 627.516 C 432.154 638.966 421.859 660.549 421.859 767.971 L 393.101 767.839 Z " fill="rgb(56,142,60)"/><path d=" M 412.273 767.81 C 412.273 711.213 464.827 646.324 479.374 635.774 C 471.302 645.453 441.03 686.521 441.03 768 L 412.273 767.81 Z " fill="rgb(56,142,60)"/><path d=" M 388.308 767.905 C 388.308 697.711 361.31 661.082 354.758 652.291 C 363.222 659.822 417.066 718.422 417.066 767.905 L 388.308 767.905 Z " fill="rgb(56,142,60)"/><path d=" M 436.237 767.905 C 436.237 711.597 490.009 666.165 498.545 660.549 C 491.692 667.647 464.995 705.969 464.995 767.905 L 436.237 767.905 Z  M 364.343 767.905 C 364.343 705.824 333.395 667.453 326 660.549 C 335.006 665.917 393.101 713.178 393.101 767.905 L 364.343 767.905 Z " fill="rgb(139,195,74)"/><path d=" M 390.369 685.274 C 392.142 691.228 393.571 697.228 394.75 703.26 C 406.919 723.245 417.046 746.405 417.066 767.872 L 426.652 767.81 C 425.469 752.973 423.04 738.23 419.385 723.695 C 415.661 709.177 410.605 694.936 403.981 681.306 C 397.391 667.68 389.243 654.661 379.508 642.695 C 369.735 630.791 358.578 619.63 345.172 611 C 356.948 621.158 365.896 633.338 373.349 645.87 C 380.745 658.484 386.324 671.759 390.364 685.274 L 390.369 685.274 Z  M 397.894 767.905 L 397.894 768 L 412.273 767.905 L 397.894 767.905 Z " fill="rgb(76,175,80)"/></g><g id="Group"><path d=" M 713.056 767.839 C 713.056 697.744 752.009 639.615 761.306 627.516 C 756.738 638.966 745.222 660.549 745.222 767.971 L 713.056 767.839 Z " fill="rgb(56,142,60)"/><path d=" M 734.5 767.81 C 734.5 711.213 793.285 646.324 809.556 635.774 C 800.527 645.453 766.667 686.521 766.667 768 L 734.5 767.81 Z " fill="rgb(56,142,60)"/><path d=" M 707.694 767.905 C 707.694 697.711 677.495 661.082 670.167 652.291 C 679.634 659.822 739.861 718.422 739.861 767.905 L 707.694 767.905 Z " fill="rgb(56,142,60)"/><path d=" M 761.306 767.905 C 761.306 711.597 821.452 666.165 831 660.549 C 823.334 667.647 793.472 705.969 793.472 767.905 L 761.306 767.905 Z  M 680.889 767.905 C 680.889 705.824 646.272 667.453 638 660.549 C 648.074 665.917 713.056 713.178 713.056 767.905 L 680.889 767.905 Z " fill="rgb(139,195,74)"/><path d=" M 710 685.274 C 711.983 691.228 713.581 697.228 714.9 703.26 C 728.512 723.245 739.84 746.405 739.861 767.872 L 750.583 767.81 C 749.26 752.973 746.544 738.23 742.456 723.695 C 738.29 709.177 732.634 694.936 725.225 681.306 C 717.854 667.68 708.74 654.661 697.851 642.695 C 686.92 630.791 674.439 619.63 659.444 611 C 672.617 621.158 682.626 633.338 690.962 645.87 C 699.235 658.484 705.475 671.759 709.994 685.274 L 710 685.274 Z  M 718.417 767.905 L 718.417 768 L 734.5 767.905 L 718.417 767.905 Z " fill="rgb(76,175,80)"/></g><g id="Group"><path d=" M 414.49 767.888 C 414.49 719.245 442.251 678.906 448.876 670.511 C 445.621 678.456 437.414 693.434 437.414 767.98 L 414.49 767.888 Z " fill="rgb(56,142,60)"/><path d=" M 429.773 767.868 C 429.773 728.592 471.667 683.563 483.263 676.241 C 476.829 682.958 452.697 711.457 452.697 768 L 429.773 767.868 Z " fill="rgb(56,142,60)"/><path d=" M 410.669 767.934 C 410.669 719.222 389.147 693.803 383.924 687.703 C 390.672 692.93 433.593 733.595 433.593 767.934 L 410.669 767.934 Z " fill="rgb(56,142,60)"/><path d=" M 448.876 767.934 C 448.876 728.859 491.741 697.331 498.545 693.434 C 493.082 698.359 471.801 724.953 471.801 767.934 L 448.876 767.934 Z  M 391.566 767.934 C 391.566 724.853 366.895 698.225 361 693.434 C 368.179 697.159 414.49 729.956 414.49 767.934 L 391.566 767.934 Z " fill="rgb(139,195,74)"/><path d=" M 412.312 710.592 C 413.726 714.724 414.864 718.887 415.804 723.073 C 425.505 736.942 433.578 753.014 433.593 767.911 L 441.235 767.868 C 440.292 757.572 438.356 747.341 435.443 737.254 C 432.474 727.18 428.443 717.297 423.163 707.838 C 417.909 698.382 411.414 689.348 403.654 681.044 C 395.864 672.783 386.969 665.038 376.283 659.049 C 385.67 666.098 392.804 674.551 398.745 683.247 C 404.64 692.001 409.087 701.213 412.308 710.592 L 412.312 710.592 Z  M 418.311 767.934 L 418.311 768 L 429.773 767.934 L 418.311 767.934 Z " fill="rgb(76,175,80)"/></g><g id="Group"><path d=" M 798.235 767.839 C 798.235 697.744 839.877 639.615 849.814 627.516 C 844.932 638.966 832.621 660.549 832.621 767.971 L 798.235 767.839 Z " fill="rgb(56,142,60)"/><path d=" M 821.159 767.81 C 821.159 711.213 884 646.324 901.394 635.774 C 891.743 645.453 855.545 686.521 855.545 768 L 821.159 767.81 Z " fill="rgb(56,142,60)"/><path d=" M 792.504 767.905 C 792.504 697.711 760.221 661.082 752.386 652.291 C 762.507 659.822 826.89 718.422 826.89 767.905 L 792.504 767.905 Z " fill="rgb(56,142,60)"/><path d=" M 849.814 767.905 C 849.814 711.597 914.111 666.165 924.318 660.549 C 916.123 667.647 884.201 705.969 884.201 767.905 L 849.814 767.905 Z  M 763.848 767.905 C 763.848 705.824 726.843 667.453 718 660.549 C 728.769 665.917 798.235 713.178 798.235 767.905 L 763.848 767.905 Z " fill="rgb(139,195,74)"/><path d=" M 794.968 685.274 C 797.089 691.228 798.796 697.228 800.206 703.26 C 814.757 723.245 826.867 746.405 826.89 767.872 L 838.352 767.81 C 836.938 752.973 834.034 738.23 829.664 723.695 C 825.211 709.177 819.165 694.936 811.244 681.306 C 803.364 667.68 793.621 654.661 781.982 642.695 C 770.296 630.791 756.954 619.63 740.924 611 C 755.005 621.158 765.705 633.338 774.617 645.87 C 783.46 658.484 790.131 671.759 794.962 685.274 L 794.968 685.274 Z  M 803.966 767.905 L 803.966 768 L 821.159 767.905 L 803.966 767.905 Z " fill="rgb(76,175,80)"/></g><g id="Group"><path d=" M 849.083 767.867 C 849.083 709.826 881.423 661.694 889.14 651.676 C 885.348 661.157 875.788 679.028 875.788 767.976 L 849.083 767.867 Z " fill="rgb(56,142,60)"/><path d=" M 866.886 767.843 C 866.886 720.979 915.689 667.249 929.197 658.514 C 921.702 666.528 893.591 700.533 893.591 768 L 866.886 767.843 Z " fill="rgb(56,142,60)"/><path d=" M 844.633 767.921 C 844.633 709.799 819.561 679.469 813.477 672.19 C 821.337 678.426 871.337 726.948 871.337 767.921 L 844.633 767.921 Z " fill="rgb(56,142,60)"/><path d=" M 889.14 767.921 C 889.14 721.297 939.073 683.678 947 679.028 C 940.635 684.905 915.845 716.637 915.845 767.921 L 889.14 767.921 Z  M 822.379 767.921 C 822.379 716.517 793.64 684.744 786.773 679.028 C 795.136 683.472 849.083 722.606 849.083 767.921 L 822.379 767.921 Z " fill="rgb(139,195,74)"/><path d=" M 846.546 699.501 C 848.193 704.431 849.52 709.399 850.614 714.394 C 861.915 730.942 871.319 750.119 871.337 767.894 L 880.239 767.843 C 879.14 755.557 876.885 743.349 873.491 731.314 C 870.033 719.293 865.338 707.501 859.187 696.215 C 853.067 684.932 845.5 674.152 836.461 664.244 C 827.386 654.387 817.025 645.146 804.576 638 C 815.511 646.411 823.821 656.497 830.742 666.873 C 837.609 677.318 842.79 688.31 846.542 699.501 L 846.546 699.501 Z  M 853.534 767.921 L 853.534 768 L 866.886 767.921 L 853.534 767.921 Z " fill="rgb(76,175,80)"/></g><g id="Group"><path d=" M 990.285 767.822 C 990.285 690.136 1033.074 625.713 1043.285 612.305 C 1038.268 624.994 1025.619 648.914 1025.619 767.968 L 990.285 767.822 Z " fill="rgb(56,142,60)"/><path d=" M 1013.841 767.789 C 1013.841 705.064 1078.413 633.149 1096.285 621.457 C 1086.368 632.184 1049.174 677.698 1049.174 768 L 1013.841 767.789 Z " fill="rgb(56,142,60)"/><path d=" M 984.396 767.895 C 984.396 690.1 951.224 649.504 943.174 639.762 C 953.574 648.109 1019.73 713.054 1019.73 767.895 L 984.396 767.895 Z " fill="rgb(56,142,60)"/><path d=" M 1043.285 767.895 C 1043.285 705.489 1109.353 655.138 1119.841 648.914 C 1111.42 656.781 1078.619 699.252 1078.619 767.895 L 1043.285 767.895 Z  M 954.952 767.895 C 954.952 699.092 916.927 656.565 907.841 648.914 C 918.906 654.863 990.285 707.242 990.285 767.895 L 954.952 767.895 Z " fill="rgb(139,195,74)"/><path d=" M 986.929 676.316 C 989.108 682.915 990.862 689.564 992.311 696.25 C 1007.263 718.399 1019.706 744.067 1019.73 767.858 L 1031.508 767.789 C 1030.054 751.346 1027.071 735.006 1022.58 718.898 C 1018.004 702.808 1011.792 687.025 1003.653 671.919 C 995.556 656.817 985.545 642.388 973.584 629.127 C 961.577 615.934 947.868 603.564 931.396 594 C 945.865 605.257 956.86 618.757 966.017 632.646 C 975.104 646.626 981.958 661.338 986.923 676.316 L 986.929 676.316 Z  M 996.174 767.895 L 996.174 768 L 1013.841 767.895 L 996.174 767.895 Z " fill="rgb(76,175,80)"/></g><g id="Group"><path d=" M 750.101 767.839 C 750.101 697.744 784.926 639.615 793.237 627.516 C 789.154 638.966 778.859 660.549 778.859 767.971 L 750.101 767.839 Z " fill="rgb(56,142,60)"/><path d=" M 769.273 767.81 C 769.273 711.213 821.827 646.324 836.374 635.774 C 828.302 645.453 798.03 686.521 798.03 768 L 769.273 767.81 Z " fill="rgb(56,142,60)"/><path d=" M 745.308 767.905 C 745.308 697.711 718.31 661.082 711.758 652.291 C 720.222 659.822 774.066 718.422 774.066 767.905 L 745.308 767.905 Z " fill="rgb(56,142,60)"/><path d=" M 793.237 767.905 C 793.237 711.597 847.009 666.165 855.545 660.549 C 848.692 667.647 821.995 705.969 821.995 767.905 L 793.237 767.905 Z  M 721.343 767.905 C 721.343 705.824 690.395 667.453 683 660.549 C 692.006 665.917 750.101 713.178 750.101 767.905 L 721.343 767.905 Z " fill="rgb(139,195,74)"/><path d=" M 747.369 685.274 C 749.142 691.228 750.571 697.228 751.75 703.26 C 763.919 723.245 774.046 746.405 774.066 767.872 L 783.652 767.81 C 782.469 752.973 780.04 738.23 776.385 723.695 C 772.661 709.177 767.605 694.936 760.981 681.306 C 754.391 667.68 746.243 654.661 736.508 642.695 C 726.735 630.791 715.578 619.63 702.172 611 C 713.948 621.158 722.896 633.338 730.349 645.87 C 737.745 658.484 743.324 671.759 747.364 685.274 L 747.369 685.274 Z  M 754.894 767.905 L 754.894 768 L 769.273 767.905 L 754.894 767.905 Z " fill="rgb(76,175,80)"/></g><g id="Group"><path d=" M 1136.056 767.839 C 1136.056 697.744 1175.009 639.615 1184.306 627.516 C 1179.738 638.966 1168.222 660.549 1168.222 767.971 L 1136.056 767.839 Z " fill="rgb(56,142,60)"/><path d=" M 1157.5 767.81 C 1157.5 711.213 1216.285 646.324 1232.556 635.774 C 1223.527 645.453 1189.667 686.521 1189.667 768 L 1157.5 767.81 Z " fill="rgb(56,142,60)"/><path d=" M 1130.694 767.905 C 1130.694 697.711 1100.495 661.082 1093.167 652.291 C 1102.634 659.822 1162.861 718.422 1162.861 767.905 L 1130.694 767.905 Z " fill="rgb(56,142,60)"/><path d=" M 1184.306 767.905 C 1184.306 711.597 1244.452 666.164 1254 660.549 C 1246.334 667.647 1216.472 705.969 1216.472 767.905 L 1184.306 767.905 Z  M 1103.889 767.905 C 1103.889 705.824 1069.272 667.453 1061 660.549 C 1071.074 665.917 1136.056 713.178 1136.056 767.905 L 1103.889 767.905 Z " fill="rgb(139,195,74)"/><path d=" M 1133 685.274 C 1134.983 691.228 1136.581 697.228 1137.9 703.26 C 1151.512 723.245 1162.84 746.405 1162.861 767.872 L 1173.583 767.81 C 1172.26 752.973 1169.544 738.23 1165.456 723.695 C 1161.29 709.177 1155.634 694.936 1148.225 681.306 C 1140.854 667.68 1131.74 654.661 1120.851 642.695 C 1109.92 630.791 1097.439 619.63 1082.444 611 C 1095.617 621.158 1105.626 633.338 1113.962 645.87 C 1122.235 658.484 1128.475 671.759 1132.994 685.274 L 1133 685.274 Z  M 1141.417 767.905 L 1141.417 768 L 1157.5 767.905 L 1141.417 767.905 Z " fill="rgb(76,175,80)"/></g><g id="Group"><path d=" M 771.49 767.888 C 771.49 719.245 799.251 678.906 805.876 670.511 C 802.621 678.456 794.414 693.434 794.414 767.98 L 771.49 767.888 Z " fill="rgb(56,142,60)"/><path d=" M 786.773 767.868 C 786.773 728.592 828.667 683.563 840.263 676.241 C 833.829 682.958 809.697 711.457 809.697 768 L 786.773 767.868 Z " fill="rgb(56,142,60)"/><path d=" M 767.669 767.934 C 767.669 719.222 746.147 693.803 740.924 687.703 C 747.672 692.93 790.593 733.595 790.593 767.934 L 767.669 767.934 Z " fill="rgb(56,142,60)"/><path d=" M 805.876 767.934 C 805.876 728.859 848.741 697.331 855.545 693.434 C 850.082 698.359 828.801 724.953 828.801 767.934 L 805.876 767.934 Z  M 748.566 767.934 C 748.566 724.853 723.895 698.225 718 693.434 C 725.179 697.159 771.49 729.956 771.49 767.934 L 748.566 767.934 Z " fill="rgb(139,195,74)"/><path d=" M 769.312 710.592 C 770.726 714.724 771.864 718.887 772.804 723.073 C 782.505 736.942 790.578 753.014 790.593 767.911 L 798.235 767.868 C 797.292 757.572 795.356 747.341 792.443 737.254 C 789.474 727.18 785.443 717.297 780.163 707.838 C 774.909 698.382 768.414 689.348 760.654 681.044 C 752.864 672.783 743.969 665.038 733.283 659.049 C 742.67 666.098 749.804 674.551 755.745 683.247 C 761.64 692.001 766.087 701.213 769.308 710.592 L 769.312 710.592 Z  M 775.311 767.934 L 775.311 768 L 786.773 767.934 L 775.311 767.934 Z " fill="rgb(76,175,80)"/></g><g id="Group"><path d=" M 976.235 767.839 C 976.235 697.744 1017.877 639.615 1027.814 627.516 C 1022.932 638.966 1010.621 660.549 1010.621 767.971 L 976.235 767.839 Z " fill="rgb(56,142,60)"/><path d=" M 999.159 767.81 C 999.159 711.213 1062 646.324 1079.394 635.774 C 1069.743 645.453 1033.545 686.521 1033.545 768 L 999.159 767.81 Z " fill="rgb(56,142,60)"/><path d=" M 970.504 767.905 C 970.504 697.711 938.221 661.082 930.386 652.291 C 940.507 659.822 1004.89 718.422 1004.89 767.905 L 970.504 767.905 Z " fill="rgb(56,142,60)"/><path d=" M 1027.814 767.905 C 1027.814 711.597 1092.111 666.164 1102.318 660.549 C 1094.123 667.647 1062.201 705.969 1062.201 767.905 L 1027.814 767.905 Z  M 941.848 767.905 C 941.848 705.824 904.843 667.453 896 660.549 C 906.769 665.917 976.235 713.178 976.235 767.905 L 941.848 767.905 Z " fill="rgb(139,195,74)"/><path d=" M 972.968 685.274 C 975.089 691.228 976.796 697.228 978.206 703.26 C 992.757 723.245 1004.867 746.405 1004.89 767.872 L 1016.352 767.81 C 1014.938 752.973 1012.034 738.23 1007.664 723.695 C 1003.211 709.177 997.165 694.936 989.244 681.306 C 981.364 667.68 971.621 654.661 959.982 642.695 C 948.296 630.791 934.954 619.63 918.924 611 C 933.005 621.158 943.705 633.338 952.617 645.87 C 961.46 658.484 968.131 671.759 972.962 685.274 L 972.968 685.274 Z  M 981.966 767.905 L 981.966 768 L 999.159 767.905 L 981.966 767.905 Z " fill="rgb(76,175,80)"/></g><g id="Group"><path d=" M 1027.083 767.867 C 1027.083 709.826 1059.423 661.694 1067.14 651.676 C 1063.348 661.157 1053.788 679.028 1053.788 767.976 L 1027.083 767.867 Z " fill="rgb(56,142,60)"/><path d=" M 1044.886 767.843 C 1044.886 720.979 1093.689 667.249 1107.197 658.514 C 1099.702 666.528 1071.591 700.533 1071.591 768 L 1044.886 767.843 Z " fill="rgb(56,142,60)"/><path d=" M 1022.633 767.921 C 1022.633 709.799 997.561 679.469 991.477 672.19 C 999.337 678.426 1049.337 726.948 1049.337 767.921 L 1022.633 767.921 Z " fill="rgb(56,142,60)"/><path d=" M 1067.14 767.921 C 1067.14 721.297 1117.073 683.678 1125 679.028 C 1118.635 684.905 1093.845 716.637 1093.845 767.921 L 1067.14 767.921 Z  M 1000.379 767.921 C 1000.379 716.517 971.64 684.744 964.773 679.028 C 973.136 683.472 1027.083 722.606 1027.083 767.921 L 1000.379 767.921 Z " fill="rgb(139,195,74)"/><path d=" M 1024.546 699.501 C 1026.193 704.431 1027.52 709.399 1028.614 714.394 C 1039.915 730.942 1049.319 750.119 1049.337 767.894 L 1058.239 767.843 C 1057.14 755.557 1054.885 743.349 1051.491 731.314 C 1048.033 719.293 1043.338 707.501 1037.187 696.215 C 1031.067 684.932 1023.5 674.152 1014.461 664.244 C 1005.386 654.387 995.025 645.146 982.576 638 C 993.511 646.411 1001.821 656.497 1008.742 666.873 C 1015.609 677.318 1020.79 688.31 1024.542 699.501 L 1024.546 699.501 Z  M 1031.534 767.921 L 1031.534 768 L 1044.886 767.921 L 1031.534 767.921 Z " fill="rgb(76,175,80)"/></g><g id="Group"><path d=" M 1154.604 767.822 C 1154.604 690.136 1197.392 625.713 1207.604 612.305 C 1202.586 624.994 1189.937 648.914 1189.937 767.968 L 1154.604 767.822 Z " fill="rgb(56,142,60)"/><path d=" M 1178.159 767.789 C 1178.159 705.064 1242.731 633.149 1260.604 621.457 C 1250.687 632.184 1213.492 677.698 1213.492 768 L 1178.159 767.789 Z " fill="rgb(56,142,60)"/><path d=" M 1148.715 767.895 C 1148.715 690.1 1115.543 649.504 1107.492 639.762 C 1117.892 648.109 1184.048 713.054 1184.048 767.895 L 1148.715 767.895 Z " fill="rgb(56,142,60)"/><path d=" M 1207.604 767.895 C 1207.604 705.489 1273.671 655.138 1284.159 648.914 C 1275.738 656.781 1242.937 699.252 1242.937 767.895 L 1207.604 767.895 Z  M 1119.27 767.895 C 1119.27 699.092 1081.246 656.565 1072.159 648.914 C 1083.224 654.863 1154.604 707.242 1154.604 767.895 L 1119.27 767.895 Z " fill="rgb(139,195,74)"/><path d=" M 1151.247 676.316 C 1153.426 682.915 1155.181 689.564 1156.629 696.25 C 1171.581 718.399 1184.024 744.067 1184.048 767.858 L 1195.826 767.789 C 1194.373 751.346 1191.389 735.006 1186.898 718.898 C 1182.323 702.808 1176.11 687.025 1167.971 671.919 C 1159.874 656.817 1149.863 642.388 1137.903 629.127 C 1125.895 615.934 1112.186 603.564 1095.715 594 C 1110.184 605.257 1121.178 618.757 1130.335 632.646 C 1139.422 646.626 1146.277 661.338 1151.241 676.316 L 1151.247 676.316 Z  M 1160.492 767.895 L 1160.492 768 L 1178.159 767.895 L 1160.492 767.895 Z " fill="rgb(76,175,80)"/></g><g id="Group"><path d=" M 1127.331 767.822 C 1127.331 690.136 1170.119 625.713 1180.331 612.305 C 1175.313 624.994 1162.664 648.914 1162.664 767.968 L 1127.331 767.822 Z " fill="rgb(56,142,60)"/><path d=" M 1150.886 767.79 C 1150.886 705.064 1215.458 633.149 1233.331 621.457 C 1223.414 632.184 1186.22 677.698 1186.22 768 L 1150.886 767.79 Z " fill="rgb(56,142,60)"/><path d=" M 1121.442 767.895 C 1121.442 690.1 1088.27 649.504 1080.22 639.762 C 1090.619 648.109 1156.775 713.054 1156.775 767.895 L 1121.442 767.895 Z " fill="rgb(56,142,60)"/><path d=" M 1180.331 767.895 C 1180.331 705.489 1246.398 655.138 1256.886 648.914 C 1248.465 656.781 1215.664 699.252 1215.664 767.895 L 1180.331 767.895 Z  M 1091.997 767.895 C 1091.997 699.092 1053.973 656.566 1044.886 648.914 C 1055.952 654.863 1127.331 707.242 1127.331 767.895 L 1091.997 767.895 Z " fill="rgb(139,195,74)"/><path d=" M 1123.974 676.316 C 1126.153 682.915 1127.908 689.564 1129.357 696.25 C 1144.308 718.399 1156.752 744.067 1156.775 767.858 L 1168.553 767.79 C 1167.1 751.346 1164.116 735.006 1159.625 718.898 C 1155.05 702.808 1148.837 687.025 1140.699 671.919 C 1132.601 656.817 1122.59 642.389 1110.63 629.127 C 1098.622 615.934 1084.913 603.564 1068.442 594 C 1082.911 605.257 1093.905 618.757 1103.063 632.646 C 1112.149 646.626 1119.004 661.338 1123.968 676.316 L 1123.974 676.316 Z  M 1133.22 767.895 L 1133.22 768 L 1150.886 767.895 L 1133.22 767.895 Z " fill="rgb(76,175,80)"/></g><g id="Group"><path d=" M 888.26 767.839 C 888.26 697.744 923.086 639.615 931.396 627.516 C 927.313 638.966 917.018 660.549 917.018 767.971 L 888.26 767.839 Z " fill="rgb(56,142,60)"/><path d=" M 907.432 767.81 C 907.432 711.213 959.986 646.324 974.533 635.774 C 966.462 645.453 936.189 686.521 936.189 768 L 907.432 767.81 Z " fill="rgb(56,142,60)"/><path d=" M 883.467 767.905 C 883.467 697.711 856.469 661.082 849.917 652.291 C 858.381 659.822 912.225 718.422 912.225 767.905 L 883.467 767.905 Z " fill="rgb(56,142,60)"/><path d=" M 931.396 767.905 C 931.396 711.597 985.168 666.164 993.705 660.549 C 986.851 667.647 960.154 705.969 960.154 767.905 L 931.396 767.905 Z  M 859.503 767.905 C 859.503 705.824 828.555 667.453 821.159 660.549 C 830.165 665.917 888.26 713.178 888.26 767.905 L 859.503 767.905 Z " fill="rgb(139,195,74)"/><path d=" M 885.528 685.274 C 887.302 691.228 888.73 697.228 889.909 703.26 C 902.078 723.245 912.206 746.405 912.225 767.872 L 921.811 767.81 C 920.628 752.973 918.2 738.23 914.545 723.695 C 910.82 709.177 905.764 694.936 899.14 681.306 C 892.55 667.68 884.402 654.661 874.667 642.695 C 864.895 630.791 853.737 619.63 840.331 611 C 852.107 621.158 861.055 633.338 868.508 645.87 C 875.904 658.484 881.483 671.759 885.523 685.274 L 885.528 685.274 Z  M 893.053 767.905 L 893.053 768 L 907.432 767.905 L 893.053 767.905 Z " fill="rgb(76,175,80)"/></g><g id="Group"><path d=" M 1195.94 763 C 1194.12 684.28 1149.25 659.99 1136 654.52 L 1136 563 L 1181 563 L 1230.02 572.9 L 1256 572.99 L 1256 615.85 C 1224.38 647.21 1225.09 739.64 1225.8 763.01 L 1195.94 763.01 L 1195.94 763 Z " fill="rgb(153,201,158)"/><path d=" M 1180.01 568 L 1229.04 577.81 L 1230.01 578 L 1251 578 L 1251 613.82 C 1221.14 646.01 1219.98 727.59 1220.65 758 L 1200.77 758 C 1197.39 685.55 1157.62 659.18 1141 651.29 L 1141 568 L 1180.01 568 Z  M 1181 558 L 1131 558 L 1131 658 C 1131 658 1191 675.92 1191 768 L 1231 768 C 1231 768 1224.99 650.1 1261 618 L 1261 568 L 1231 568 L 1181 558 Z " fill="rgb(94,156,118)"/><path d=" M 1196.14 763 C 1196.46 735.34 1192.29 606.83 1091.26 539.36 C 1138.65 554.21 1224.22 603.15 1225.97 763 L 1196.14 763 Z " fill="rgb(153,201,158)"/><path d=" M 1125.77 561.11 C 1169 587.16 1218.21 642.2 1220.89 758 L 1201.14 758 C 1200.79 725.97 1193.84 628.56 1125.77 561.11 Z  M 1061 528 C 1202 594.57 1191 768 1191 768 L 1231 768 C 1231 539.04 1061 528 1061 528 Z " fill="rgb(94,156,118)"/><path d=" M 1206.13 763 C 1206.94 742.2 1213.05 661.38 1258.65 615.64 C 1272.301 601.785 1289.458 591.896 1308.29 587.03 C 1229.27 633.52 1225.58 738.21 1225.86 763.01 L 1206.13 763.01 L 1206.13 763 Z " fill="rgb(153,201,158)"/><path d=" M 1270.65 611.52 C 1226.53 660.9 1221.21 731.44 1220.87 758 L 1211.38 758 C 1212.95 731.84 1221 660.47 1262.22 619.14 C 1264.93 616.42 1267.74 613.88 1270.65 611.52 Z  M 1341 578 C 1200.26 578 1201 768 1201 768 L 1231 768 C 1231 768 1221.09 615.83 1341 578 Z " fill="rgb(94,156,118)"/><path d=" M 1181 535.78 C 1173.84 526.06 1166 513.39 1166 508 C 1166 499.73 1172.73 493 1181 493 C 1189.27 493 1196 499.73 1196 508 C 1196 513.39 1188.15 526.06 1181 535.78 Z " fill="rgb(255,196,156)"/><path d=" M 1181 498 C 1186.51 498 1191 502.49 1191 507.99 C 1190.91 510.87 1186.69 518.73 1181 527.14 C 1175.31 518.73 1171.09 510.87 1171 508 C 1171 502.49 1175.49 498 1181 498 Z  M 1181 488 C 1169.95 488 1161 496.95 1161 508 C 1161 519.05 1181 544 1181 544 C 1181 544 1201 519.05 1201 508 C 1201 496.95 1192.05 488 1181 488 Z " fill="rgb(176,129,89)"/><path d=" M 1181 603 C 1172.73 603 1166 596.27 1166 588 C 1166 582.61 1173.84 569.94 1181 560.22 C 1188.16 569.94 1196 582.62 1196 588 C 1196 596.27 1189.27 603 1181 603 Z " fill="rgb(255,196,156)"/><path d=" M 1181 568.87 C 1186.69 577.27 1190.91 585.13 1191 588 C 1191 593.51 1186.51 598 1181 598 C 1175.49 598 1171 593.51 1171 588.01 C 1171.09 585.13 1175.31 577.27 1181 568.87 Z  M 1181 552 C 1181 552 1161 576.95 1161 588 C 1161 588 1169.95 608 1181 608 C 1181 608 1201 599.05 1201 588 C 1201 588 1181 552 1181 552 Z " fill="rgb(176,129,89)"/><path d=" M 1152.87 542.96 C 1143.29 542.96 1139.87 541.59 1138.85 541 C 1135.39 539.029 1132.867 535.75 1131.85 531.9 C 1130.793 528.059 1131.327 523.954 1133.33 520.51 C 1137.495 513.353 1146.653 510.897 1153.84 515.01 C 1158.51 517.7 1165.58 530.81 1170.43 541.86 C 1165.74 542.38 1159.11 542.96 1152.87 542.96 Z " fill="rgb(255,196,156)"/><path d=" M 1146.36 518 C 1148.12 518 1149.8 518.45 1151.33 519.33 C 1153.78 520.85 1158.49 528.42 1162.93 537.54 C 1159.71 537.78 1156.22 537.96 1152.86 537.96 C 1143.87 537.96 1141.42 536.71 1141.33 536.66 C 1139.024 535.345 1137.339 533.163 1136.65 530.6 C 1135.961 528.036 1136.324 525.304 1137.66 523.01 C 1139.44 519.92 1142.78 518 1146.36 518 Z  M 1146.36 508 C 1137.292 507.98 1129.346 514.063 1126.998 522.821 C 1124.65 531.58 1128.488 540.822 1136.35 545.34 C 1139.82 547.34 1146.17 547.97 1152.87 547.97 C 1164.68 547.97 1177.57 545.99 1177.57 545.99 C 1177.57 545.99 1165.93 516.2 1156.35 510.68 C 1153.313 508.924 1149.868 508 1146.36 508 Z " fill="rgb(176,129,89)"/><path d=" M 1215.63 583 C 1213.02 583 1210.43 582.31 1208.16 580.99 C 1203.49 578.3 1196.43 565.19 1191.59 554.14 C 1196.28 553.62 1202.9 553.04 1209.13 553.04 C 1218.7 553.04 1222.12 554.41 1223.14 555 C 1226.62 557 1229.1 560.23 1230.13 564.1 C 1231.331 568.608 1230.371 573.418 1227.532 577.119 C 1224.692 580.82 1220.295 582.993 1215.63 583 Z " fill="rgb(255,196,156)"/><path d=" M 1209.14 558.04 C 1218.11 558.04 1220.56 559.29 1220.65 559.34 C 1224.622 561.573 1226.575 566.215 1225.393 570.616 C 1224.212 575.017 1220.196 578.057 1215.64 578 C 1213.898 578.004 1212.186 577.545 1210.68 576.67 C 1208.23 575.15 1203.53 567.58 1199.09 558.46 C 1202.3 558.21 1205.78 558.04 1209.14 558.04 Z  M 1209.14 548.04 C 1197.34 548.04 1184.46 550.02 1184.46 550.02 C 1184.46 550.02 1196.09 579.81 1205.66 585.33 C 1210.257 587.988 1215.723 588.707 1220.851 587.328 C 1225.979 585.949 1230.347 582.585 1232.99 577.98 C 1235.64 573.384 1236.356 567.923 1234.979 562.799 C 1233.603 557.676 1230.247 553.309 1225.65 550.66 C 1222.18 548.67 1215.83 548.04 1209.14 548.04 Z " fill="rgb(176,129,89)"/><path d=" M 1146.34 582.94 C 1140.97 582.934 1136.009 580.069 1133.32 575.42 C 1131.322 571.974 1130.789 567.872 1131.84 564.03 C 1132.88 560.16 1135.38 556.93 1138.85 554.93 C 1139.87 554.34 1143.26 552.98 1152.73 552.98 C 1159.02 552.98 1165.69 553.58 1170.41 554.11 C 1165.56 565.16 1158.48 578.26 1153.81 580.94 C 1151.52 582.25 1148.94 582.94 1146.34 582.94 Z " fill="rgb(255,196,156)"/><path d=" M 1152.73 557.98 C 1156.12 557.98 1159.65 558.16 1162.9 558.41 C 1158.45 567.52 1153.75 575.09 1151.3 576.6 C 1149.795 577.48 1148.083 577.942 1146.34 577.94 C 1142.76 577.94 1139.43 576.02 1137.65 572.92 C 1136.323 570.623 1135.966 567.892 1136.656 565.331 C 1137.347 562.77 1139.029 560.589 1141.33 559.27 C 1141.42 559.22 1143.85 557.98 1152.73 557.98 Z  M 1152.73 547.98 C 1146.09 547.98 1139.8 548.61 1136.35 550.59 C 1127.007 556.204 1123.876 568.264 1129.308 577.714 C 1134.74 587.164 1146.736 590.528 1156.29 585.28 C 1165.87 579.78 1177.53 550 1177.53 550 C 1177.53 550 1164.57 547.98 1152.73 547.98 Z " fill="rgb(176,129,89)"/><path d=" M 1209.28 543 C 1202.99 543 1196.32 542.4 1191.6 541.87 C 1196.45 530.82 1203.53 517.72 1208.2 515.04 C 1211.646 513.048 1215.743 512.511 1219.586 513.547 C 1223.429 514.583 1226.702 517.106 1228.68 520.56 C 1230.68 524.04 1231.21 528.08 1230.16 531.95 C 1229.11 535.82 1226.62 539.05 1223.15 541.05 C 1222.14 541.64 1218.74 543 1209.28 543 Z " fill="rgb(255,196,156)"/><path d=" M 1215.66 518.04 C 1219.24 518.04 1222.57 519.96 1224.35 523.06 C 1225.677 525.357 1226.034 528.088 1225.344 530.649 C 1224.653 533.21 1222.971 535.391 1220.67 536.71 C 1220.58 536.76 1218.15 538 1209.27 538 C 1205.87 538 1202.35 537.82 1199.09 537.57 C 1203.53 528.46 1208.24 520.9 1210.69 519.38 C 1212.199 518.501 1213.914 518.039 1215.66 518.04 Z  M 1215.66 508.04 C 1212.28 508.04 1208.85 508.9 1205.71 510.7 C 1196.13 516.2 1184.47 545.98 1184.47 545.98 C 1184.47 545.98 1197.43 548 1209.27 548 C 1215.91 548 1222.2 547.37 1225.65 545.39 C 1233.519 540.878 1237.366 531.635 1235.022 522.872 C 1232.678 514.109 1224.731 508.021 1215.66 508.04 Z " fill="rgb(176,129,89)"/><path d=" M 1166 548 C 1166 539.721 1172.721 533 1181 533 C 1189.279 533 1196 539.721 1196 548 C 1196 556.279 1189.279 563 1181 563 C 1172.721 563 1166 556.279 1166 548 Z " fill="rgb(255,238,163)"/><path d=" M 1181 538 C 1186.51 538 1191 542.49 1191 548 C 1191 553.51 1186.51 558 1181 558 C 1175.49 558 1171 553.51 1171 548 C 1171 542.49 1175.49 538 1181 538 Z  M 1181 528 C 1173.75 527.836 1166.979 531.609 1163.305 537.862 C 1159.631 544.114 1159.629 551.865 1163.3 558.119 C 1166.971 564.373 1173.74 568.15 1180.99 567.99 C 1191.859 567.75 1200.545 558.871 1200.548 548 C 1200.551 537.128 1191.869 528.246 1181 528 Z " fill="rgb(245,194,118)"/><path d=" M 1121 605.78 C 1113.84 596.06 1106 583.39 1106 578 C 1106 569.73 1112.73 563 1121 563 C 1129.27 563 1136 569.73 1136 578 C 1136 583.39 1128.16 596.06 1121 605.78 Z " fill="rgb(247,143,143)"/><path d=" M 1121 568 C 1126.51 568 1131 572.49 1131 577.99 C 1130.91 580.87 1126.69 588.73 1121 597.14 C 1115.31 588.73 1111.09 580.87 1111 578 C 1111 572.49 1115.49 568 1121 568 Z  M 1121 558 C 1109.95 558 1101 566.95 1101 578 C 1101 589.05 1121 614 1121 614 C 1121 614 1141 589.05 1141 578 C 1141 566.95 1132.05 558 1121 558 Z " fill="rgb(199,67,67)"/><path d=" M 1121 673 C 1112.73 673 1106 666.27 1106 658 C 1106 652.61 1113.84 639.94 1121 630.22 C 1128.16 639.94 1136 652.62 1136 658 C 1136 666.27 1129.27 673 1121 673 Z " fill="rgb(247,143,143)"/><path d=" M 1121 638.87 C 1126.69 647.27 1130.91 655.13 1131 658 C 1131 663.51 1126.51 668 1121 668 C 1115.49 668 1111 663.51 1111 658.01 C 1111.09 655.13 1115.31 647.27 1121 638.87 Z  M 1121 622 C 1121 622 1101 646.95 1101 658 C 1101 669.05 1109.95 678 1121 678 C 1132.05 678 1141 669.05 1141 658 C 1141 646.95 1121 622 1121 622 Z " fill="rgb(199,67,67)"/><path d=" M 1092.87 612.98 C 1083.31 612.98 1079.89 611.61 1078.87 611.02 C 1075.413 609.046 1072.891 605.768 1071.87 601.92 C 1070.827 598.077 1071.363 593.976 1073.36 590.53 C 1076.049 585.888 1081.005 583.027 1086.37 583.02 C 1088.98 583.02 1091.57 583.71 1093.84 585.03 C 1098.51 587.72 1105.57 600.83 1110.41 611.88 C 1105.72 612.4 1099.1 612.98 1092.87 612.98 Z " fill="rgb(247,143,143)"/><path d=" M 1086.37 588.02 C 1088.13 588.02 1089.8 588.47 1091.33 589.35 C 1093.78 590.87 1098.48 598.44 1102.92 607.56 C 1099.71 607.8 1096.22 607.98 1092.87 607.98 C 1083.89 607.98 1081.45 606.73 1081.36 606.68 C 1077.388 604.447 1075.435 599.805 1076.617 595.404 C 1077.798 591.003 1081.814 587.963 1086.37 588.02 Z  M 1086.36 578.02 C 1077.292 578 1069.346 584.083 1066.998 592.841 C 1064.65 601.6 1068.488 610.842 1076.35 615.36 C 1079.81 617.36 1086.16 617.99 1092.85 617.99 C 1104.65 617.99 1117.53 616.01 1117.53 616.01 C 1117.53 616.01 1105.9 586.22 1096.33 580.7 C 1093.302 578.942 1089.862 578.017 1086.36 578.02 Z " fill="rgb(199,67,67)"/><path d=" M 1155.64 652.98 C 1153.03 652.98 1150.44 652.29 1148.17 650.97 C 1143.5 648.28 1136.44 635.17 1131.6 624.12 C 1136.29 623.6 1142.91 623.02 1149.14 623.02 C 1158.7 623.02 1162.12 624.39 1163.14 624.98 C 1166.62 626.98 1169.1 630.21 1170.14 634.08 C 1171.18 637.95 1170.65 642 1168.65 645.47 C 1165.961 650.112 1161.005 652.973 1155.64 652.98 Z " fill="rgb(247,143,143)"/><path d=" M 1149.14 628.02 C 1158.11 628.02 1160.56 629.27 1160.65 629.32 C 1162.955 630.639 1164.638 632.822 1165.327 635.386 C 1166.016 637.951 1165.653 640.684 1164.32 642.98 C 1161.548 647.735 1155.467 649.375 1150.68 646.66 C 1148.23 645.14 1143.53 637.57 1139.09 628.45 C 1142.3 628.19 1145.78 628.02 1149.14 628.02 Z  M 1149.14 618.02 C 1137.34 618.02 1124.46 620 1124.46 620 C 1124.46 620 1136.09 649.79 1145.66 655.31 C 1150.254 657.971 1155.718 658.693 1160.845 657.315 C 1165.972 655.938 1170.339 652.575 1172.98 647.97 C 1175.63 643.374 1176.346 637.913 1174.969 632.789 C 1173.593 627.666 1170.237 623.299 1165.64 620.65 C 1162.18 618.65 1155.83 618.02 1149.14 618.02 Z " fill="rgb(199,67,67)"/><path d=" M 1086.34 652.94 C 1080.964 652.936 1075.998 650.066 1073.31 645.41 C 1069.205 638.224 1071.676 629.073 1078.84 624.93 C 1079.86 624.34 1083.25 622.98 1092.73 622.98 C 1099.01 622.98 1105.69 623.58 1110.41 624.11 C 1105.55 635.16 1098.47 648.26 1093.8 650.94 C 1091.531 652.246 1088.959 652.936 1086.34 652.94 Z " fill="rgb(247,143,143)"/><path d=" M 1092.73 627.98 C 1096.12 627.98 1099.65 628.16 1102.9 628.41 C 1098.46 637.52 1093.75 645.08 1091.3 646.6 C 1086.506 649.333 1080.406 647.685 1077.64 642.91 C 1074.899 638.125 1076.539 632.025 1081.31 629.26 C 1081.42 629.22 1083.85 627.98 1092.73 627.98 Z  M 1092.73 617.98 C 1086.09 617.98 1079.8 618.61 1076.35 620.59 C 1068.481 625.102 1064.634 634.345 1066.978 643.108 C 1069.322 651.871 1077.269 657.959 1086.34 657.94 C 1089.72 657.94 1093.15 657.08 1096.29 655.28 C 1105.87 649.78 1117.53 620 1117.53 620 C 1117.53 620 1104.57 617.98 1092.73 617.98 Z " fill="rgb(199,67,67)"/><path d=" M 1149.27 613.02 C 1142.99 613.02 1136.31 612.42 1131.59 611.89 C 1136.45 600.84 1143.53 587.74 1148.2 585.06 C 1151.647 583.067 1155.746 582.529 1159.59 583.567 C 1163.434 584.605 1166.705 587.133 1168.68 590.59 C 1172.785 597.775 1170.314 606.927 1163.15 611.07 C 1162.14 611.66 1158.74 613.02 1149.27 613.02 Z " fill="rgb(247,143,143)"/><path d=" M 1155.66 588.06 C 1160.178 588.077 1164.126 591.115 1165.299 595.478 C 1166.472 599.841 1164.58 604.45 1160.68 606.73 C 1160.58 606.78 1158.15 608.02 1149.28 608.02 C 1145.88 608.02 1142.36 607.84 1139.1 607.59 C 1143.54 598.48 1148.25 590.92 1150.7 589.4 C 1152.205 588.52 1153.917 588.058 1155.66 588.06 Z  M 1155.66 578.06 C 1152.28 578.06 1148.85 578.92 1145.71 580.72 C 1136.13 586.22 1124.47 616 1124.47 616 C 1124.47 616 1137.43 618.01 1149.27 618.01 C 1155.91 618.01 1162.2 617.38 1165.65 615.4 C 1173.508 610.883 1177.347 601.647 1175.004 592.891 C 1172.662 584.135 1164.724 578.049 1155.66 578.06 Z " fill="rgb(199,67,67)"/><path d=" M 1106 618 C 1106 609.721 1112.721 603 1121 603 C 1129.279 603 1136 609.721 1136 618 C 1136 626.279 1129.279 633 1121 633 C 1112.721 633 1106 626.279 1106 618 Z " fill="rgb(255,238,163)"/><path d=" M 1121 608 C 1126.51 608 1131 612.49 1131 618 C 1131 623.51 1126.51 628 1121 628 C 1115.49 628 1111 623.51 1111 618 C 1111 612.49 1115.49 608 1121 608 Z  M 1121 598 C 1113.75 597.836 1106.979 601.609 1103.305 607.862 C 1099.631 614.114 1099.629 621.865 1103.3 628.119 C 1106.971 634.373 1113.74 638.15 1120.99 637.99 C 1131.859 637.75 1140.545 628.871 1140.548 618 C 1140.551 607.128 1131.869 598.246 1121 598 Z " fill="rgb(245,194,118)"/><path d=" M 1251 585.78 C 1243.84 576.06 1236 563.39 1236 558 C 1236 549.73 1242.73 543 1251 543 C 1259.27 543 1266 549.73 1266 558 C 1266 563.39 1258.16 576.06 1251 585.78 Z " fill="rgb(220,213,242)"/><path d=" M 1251 548 C 1256.51 548 1261 552.49 1261 557.99 C 1260.91 560.87 1256.69 568.73 1251 577.14 C 1245.31 568.73 1241.09 560.87 1241 558 C 1241 552.49 1245.49 548 1251 548 Z  M 1251 538 C 1239.95 538 1231 546.95 1231 558 C 1231 569.05 1251 594 1251 594 C 1251 594 1271 569.05 1271 558 C 1271 546.95 1262.05 538 1251 538 Z " fill="rgb(139,117,161)"/><path d=" M 1251 653 C 1242.73 653 1236 646.27 1236 638 C 1236 632.61 1243.84 619.94 1251 610.22 C 1258.16 619.94 1266 632.62 1266 638 C 1266 646.27 1259.27 653 1251 653 Z " fill="rgb(220,213,242)"/><path d=" M 1251 618.87 C 1256.69 627.27 1260.91 635.13 1261 638 C 1261 643.51 1256.51 648 1251 648 C 1245.49 648 1241 643.51 1241 638.01 C 1241.09 635.13 1245.31 627.27 1251 618.87 Z  M 1251 602 C 1251 602 1231 626.95 1231 638 C 1231 638 1239.95 658 1251 658 C 1251 658 1271 649.05 1271 638 C 1271 638 1251 602 1251 602 Z " fill="rgb(139,117,161)"/><path d=" M 1222.87 593.04 C 1213.31 593.04 1209.89 591.67 1208.87 591.08 C 1201.698 586.937 1199.233 577.771 1203.36 570.59 C 1206.049 565.948 1211.005 563.087 1216.37 563.08 C 1218.98 563.08 1221.57 563.77 1223.84 565.09 C 1228.51 567.78 1235.57 580.89 1240.41 591.94 C 1235.72 592.46 1229.1 593.04 1222.87 593.04 Z " fill="rgb(220,213,242)"/><path d=" M 1216.37 568.08 C 1218.13 568.08 1219.8 568.53 1221.33 569.41 C 1223.78 570.93 1228.48 578.5 1232.92 587.62 C 1229.71 587.86 1226.22 588.04 1222.87 588.04 C 1213.89 588.04 1211.45 586.79 1211.36 586.74 C 1207.388 584.507 1205.435 579.865 1206.617 575.464 C 1207.798 571.063 1211.814 568.023 1216.37 568.08 Z  M 1216.36 558.08 C 1207.292 558.06 1199.346 564.143 1196.998 572.901 C 1194.65 581.66 1198.488 590.902 1206.35 595.42 C 1209.81 597.42 1216.16 598.05 1222.85 598.05 C 1234.65 598.05 1247.52 596.07 1247.52 596.07 C 1247.52 596.07 1235.89 566.28 1226.32 560.76 C 1223.296 559.001 1219.859 558.076 1216.36 558.08 Z " fill="rgb(139,117,161)"/><path d=" M 1285.64 632.98 C 1283.03 632.98 1280.44 632.29 1278.17 630.97 C 1273.5 628.28 1266.44 615.17 1261.6 604.12 C 1266.29 603.6 1272.91 603.02 1279.14 603.02 C 1288.7 603.02 1292.12 604.39 1293.14 604.98 C 1296.62 606.98 1299.1 610.21 1300.14 614.08 C 1301.18 617.95 1300.65 622 1298.65 625.47 C 1295.961 630.112 1291.005 632.973 1285.64 632.98 Z " fill="rgb(220,213,242)"/><path d=" M 1279.14 608.02 C 1288.11 608.02 1290.56 609.27 1290.65 609.32 C 1295.181 612.188 1296.647 618.118 1293.974 622.767 C 1291.301 627.417 1285.439 629.133 1280.68 626.66 C 1278.23 625.14 1273.53 617.57 1269.09 608.45 C 1272.3 608.19 1275.78 608.02 1279.14 608.02 Z  M 1279.14 598.02 C 1267.34 598.02 1254.47 600 1254.47 600 C 1254.47 600 1266.1 629.79 1275.67 635.31 C 1280.264 637.971 1285.728 638.693 1290.855 637.315 C 1295.982 635.938 1300.349 632.575 1302.99 627.97 C 1305.64 623.374 1306.356 617.913 1304.979 612.789 C 1303.603 607.666 1300.247 603.299 1295.65 600.65 C 1292.18 598.65 1285.83 598.02 1279.14 598.02 Z " fill="rgb(139,117,161)"/><path d=" M 1216.33 633 C 1210.958 632.99 1205.998 630.121 1203.31 625.47 C 1199.205 618.284 1201.676 609.133 1208.84 604.99 C 1209.86 604.4 1213.25 603.04 1222.73 603.04 C 1229 603.04 1235.68 603.64 1240.41 604.17 C 1235.55 615.22 1228.47 628.32 1223.8 631 C 1221.52 632.31 1218.94 633 1216.33 633 Z " fill="rgb(220,213,242)"/><path d=" M 1222.73 608.04 C 1226.12 608.04 1229.65 608.22 1232.9 608.47 C 1228.45 617.58 1223.75 625.15 1221.3 626.66 C 1219.795 627.54 1218.083 628.002 1216.34 628 C 1212.76 628 1209.43 626.08 1207.65 622.98 C 1206.323 620.683 1205.966 617.952 1206.656 615.391 C 1207.347 612.83 1209.029 610.649 1211.33 609.33 C 1211.42 609.28 1213.85 608.04 1222.73 608.04 Z  M 1222.73 598.04 C 1216.09 598.04 1209.8 598.67 1206.35 600.65 C 1198.481 605.162 1194.634 614.405 1196.978 623.168 C 1199.322 631.931 1207.269 638.019 1216.34 638 C 1219.72 638 1223.15 637.14 1226.29 635.34 C 1235.87 629.84 1247.53 600.06 1247.53 600.06 C 1247.53 600.06 1234.57 598.04 1222.73 598.04 Z " fill="rgb(139,117,161)"/><path d=" M 1279.27 593.02 C 1272.99 593.02 1266.31 592.42 1261.59 591.89 C 1266.45 580.84 1273.53 567.74 1278.2 565.06 C 1281.647 563.067 1285.746 562.529 1289.59 563.567 C 1293.434 564.605 1296.705 567.133 1298.68 570.59 C 1302.785 577.775 1300.314 586.927 1293.15 591.07 C 1292.14 591.66 1288.74 593.02 1279.27 593.02 Z " fill="rgb(220,213,242)"/><path d=" M 1285.66 568.06 C 1290.178 568.077 1294.126 571.115 1295.299 575.478 C 1296.472 579.841 1294.58 584.45 1290.68 586.73 C 1290.58 586.78 1288.15 588.02 1279.27 588.02 C 1275.88 588.02 1272.35 587.84 1269.1 587.59 C 1273.55 578.48 1278.25 570.91 1280.7 569.4 C 1282.205 568.52 1283.917 568.058 1285.66 568.06 Z  M 1285.66 558.06 C 1282.28 558.06 1278.85 558.92 1275.71 560.72 C 1266.13 566.22 1254.47 596 1254.47 596 C 1254.47 596 1267.43 598.01 1279.27 598.01 C 1285.91 598.01 1292.2 597.38 1295.65 595.4 C 1303.508 590.883 1307.347 581.647 1305.004 572.891 C 1302.662 564.135 1294.724 558.049 1285.66 558.06 Z " fill="rgb(139,117,161)"/><path d=" M 1236 598 C 1236 589.721 1242.721 583 1251 583 C 1259.279 583 1266 589.721 1266 598 C 1266 606.279 1259.279 613 1251 613 C 1242.721 613 1236 606.279 1236 598 Z " fill="rgb(255,238,163)"/><path d=" M 1251 588 C 1256.51 588 1261 592.49 1261 598 C 1261 603.51 1256.51 608 1251 608 C 1245.49 608 1241 603.51 1241 598 C 1241 592.49 1245.49 588 1251 588 Z  M 1251 578 C 1243.75 577.836 1236.979 581.609 1233.305 587.862 C 1229.631 594.114 1229.629 601.865 1233.3 608.119 C 1236.971 614.373 1243.74 618.15 1250.99 617.99 C 1261.859 617.75 1270.545 608.871 1270.548 598 C 1270.551 587.128 1261.869 578.246 1251 578 Z " fill="rgb(245,194,118)"/></g><g id="Group"><path d=" M 1274.215 767.839 C 1274.215 697.744 1313.168 639.615 1322.465 627.516 C 1317.897 638.966 1306.381 660.549 1306.381 767.971 L 1274.215 767.839 Z " fill="rgb(56,142,60)"/><path d=" M 1295.659 767.81 C 1295.659 711.213 1354.444 646.324 1370.715 635.774 C 1361.687 645.453 1327.826 686.521 1327.826 768 L 1295.659 767.81 Z " fill="rgb(56,142,60)"/><path d=" M 1268.854 767.905 C 1268.854 697.711 1238.654 661.082 1231.326 652.291 C 1240.793 659.822 1301.02 718.422 1301.02 767.905 L 1268.854 767.905 Z " fill="rgb(56,142,60)"/><path d=" M 1322.465 767.905 C 1322.465 711.597 1382.611 666.164 1392.159 660.549 C 1384.493 667.647 1354.631 705.969 1354.631 767.905 L 1322.465 767.905 Z  M 1242.048 767.905 C 1242.048 705.824 1207.431 667.453 1199.159 660.549 C 1209.233 665.917 1274.215 713.178 1274.215 767.905 L 1242.048 767.905 Z " fill="rgb(139,195,74)"/><path d=" M 1271.159 685.274 C 1273.142 691.228 1274.74 697.228 1276.059 703.26 C 1289.671 723.245 1300.999 746.405 1301.02 767.872 L 1311.742 767.81 C 1310.42 752.973 1307.703 738.23 1303.615 723.695 C 1299.449 709.177 1293.793 694.936 1286.384 681.306 C 1279.013 667.68 1269.899 654.661 1259.011 642.695 C 1248.079 630.791 1235.599 619.63 1220.604 611 C 1233.776 621.158 1243.785 633.338 1252.122 645.87 C 1260.394 658.484 1266.634 671.759 1271.153 685.274 L 1271.159 685.274 Z  M 1279.576 767.905 L 1279.576 768 L 1295.659 767.905 L 1279.576 767.905 Z " fill="rgb(76,175,80)"/></g><g id="Group"><path d=" M 909.649 767.888 C 909.649 719.245 937.41 678.906 944.035 670.511 C 940.78 678.456 932.573 693.434 932.573 767.98 L 909.649 767.888 Z " fill="rgb(56,142,60)"/><path d=" M 924.932 767.868 C 924.932 728.592 966.826 683.563 978.422 676.241 C 971.988 682.958 947.856 711.457 947.856 768 L 924.932 767.868 Z " fill="rgb(56,142,60)"/><path d=" M 905.828 767.934 C 905.828 719.222 884.306 693.803 879.083 687.703 C 885.831 692.93 928.753 733.595 928.753 767.934 L 905.828 767.934 Z " fill="rgb(56,142,60)"/><path d=" M 944.035 767.934 C 944.035 728.859 986.9 697.331 993.705 693.434 C 988.241 698.359 966.96 724.953 966.96 767.934 L 944.035 767.934 Z  M 886.725 767.934 C 886.725 724.853 862.054 698.225 856.159 693.434 C 863.338 697.159 909.649 729.956 909.649 767.934 L 886.725 767.934 Z " fill="rgb(139,195,74)"/><path d=" M 907.471 710.592 C 908.885 714.724 910.023 718.887 910.963 723.073 C 920.664 736.942 928.737 753.014 928.753 767.911 L 936.394 767.868 C 935.451 757.572 933.515 747.341 930.602 737.254 C 927.633 727.18 923.602 717.297 918.322 707.838 C 913.069 698.382 906.573 689.348 898.813 681.044 C 891.023 672.783 882.128 665.038 871.442 659.049 C 880.829 666.098 887.963 674.551 893.904 683.247 C 899.799 692.001 904.247 701.213 907.467 710.592 L 907.471 710.592 Z  M 913.47 767.934 L 913.47 768 L 924.932 767.934 L 913.47 767.934 Z " fill="rgb(76,175,80)"/></g></g></svg>